<svg width="972.3867" height="401.3999" xmlns="http://www.w3.org/2000/svg" version="1.1" xml:space="preserve">
 <metadata id="metadata8">image/svg+xml</metadata>

 <g>
  <title>Layer 1</title>
  <g id="g10" transform="matrix(1.33333 0 0 -1.33333 0 2196.4)">
   <g id="g12" transform="translate(-3.33333 0) scale(0.1 0.1)">
    <path fill-rule="nonzero" fill="#36b85f" d="m3228.45335,15515.37158l277.62,0c236.96,0 235.56,347.8 0,347.8l-277.62,0l0,-347.8zm277.62,-169.6l-277.62,0l0,-254.2c0,-19.2 -15.51,-34.7 -34.65,-34.7l-107.9,0c-23.49,0 -42.54,19.1 -42.54,42.6l0,884.1c0,30.3 24.52,54.8 54.81,54.9c135.96,0.2 271.93,1.3 407.9,1.3c479.54,0 480.93,-694 0,-694" id="path14"/>
    <path fill-rule="nonzero" fill="#36b85f" d="m4689.85335,15056.87158l-657.51,0c-24.26,0 -43.93,19.7 -43.93,44l0,872.5c0,35.9 29.13,65 65.07,65l637.1,0c17.98,0 32.56,-14.5 32.56,-32.5l0,-112.9c0,-18.8 -15.23,-34 -34.02,-34l-517.02,0l0,-225.8l451.78,0c43.98,0 79.63,-35.6 79.63,-79.6l0,-57.4c0,-19.6 -15.89,-35.4 -35.48,-35.4l-495.93,0l0,-221.6l518.87,0c17.77,0 32.17,-14.4 32.17,-32.2l0,-116.8c0,-18.4 -14.91,-33.3 -33.29,-33.3" id="path16"/>
    <path fill-rule="nonzero" fill="#36b85f" d="m5052.63335,15848.07158l0,-278.3c0,-9.9 8.01,-17.9 17.9,-17.9l263.93,0c117.79,0 168.27,78.5 168.27,157c0,78.6 -51.89,157.1 -168.27,157.1l-263.93,0c-9.89,0 -17.9,-8 -17.9,-17.9zm684.25,-791.2l-211.99,0c-5.17,0 -10.09,2.3 -13.49,6.2l-275.34,315.8c-3.4,3.9 -8.32,6.1 -13.49,6.1l-152.04,0c-9.89,0 -17.9,-8 -17.9,-17.9l0,-262.1c0,-26.5 -21.53,-48.1 -48.09,-48.1l-80.82,0c-31.02,0 -56.17,25.2 -56.17,56.2l0,871.5c0,30.5 24.74,55.2 55.23,55.2c137.23,-0.3 274.46,-1.4 411.68,-1.4c231.36,-1.4 353.35,-155.6 353.35,-325.3c0,-127.4 -55.31,-256.1 -219.47,-301.6c-12.88,-3.5 -17.77,-19.2 -8.91,-29.2l271.75,-306.3c3.67,-4.2 5.7,-9.5 5.7,-15.1l0,-4" id="path18"/>
    <path fill-rule="nonzero" fill="#36b85f" d="m2669.19335,14250.07158l0,-247.6c0,-18.3 14.89,-33.2 33.25,-33.2l248.59,0c117.78,0 168.26,78.5 168.26,157c0,78.5 -51.88,157.1 -168.26,157.1l-248.59,0c-18.36,0 -33.25,-14.9 -33.25,-33.3zm684.26,-775.8l-205.01,0c-9.61,0 -18.75,4.2 -25.06,11.4l-266.17,305.3c-6.31,7.3 -15.45,11.4 -25.06,11.4l-129.71,0c-18.36,0 -33.25,-14.8 -33.25,-33.2l0,-259.9c0,-19.3 -15.67,-35 -35.01,-35l-116.82,0c-18.36,0 -33.25,14.9 -33.25,33.3l0,916.3c0,18.4 14.93,33.3 33.31,33.3c144.54,-0.2 289.07,-1.4 433.61,-1.4c231.35,-1.4 353.34,-155.6 353.34,-325.3c0,-121.8 -50.56,-244.8 -198.46,-295.1c-22.45,-7.6 -29.86,-35.7 -14.13,-53.5l253.29,-285.5c5.4,-6.1 8.38,-13.9 8.38,-22.1l0,0" id="path20"/>
    <path fill-rule="nonzero" fill="#36b85f" d="m3869.43335,14249.67158l-182.28,-417.8l364.55,0l-182.27,417.8zm256.59,-590.3l-513.19,0l-77.51,-170.5c-4.02,-8.9 -12.85,-14.6 -22.57,-14.6l-184.55,0l419.75,935.8c12.49,27.8 40.16,45.7 70.68,45.7l101.88,0c30.35,0 57.87,-17.8 70.29,-45.5l406.08,-905.3c6.47,-14.4 -4.08,-30.7 -19.88,-30.7l-145.23,0c-14.01,0 -26.7,8.3 -32.42,21l-73.33,164.1" id="path22"/>
    <path fill-rule="nonzero" fill="#36b85f" d="m5216.90335,14457.17158l88.71,0c10.62,0 19.22,-8.6 19.22,-19.2l0,-920c0,-24.1 -19.56,-43.7 -43.7,-43.7l-71.28,0l0,-1.4l-515.99,663.2l0,-630.8c0,-17.1 -13.87,-31 -30.98,-31l-109.49,0c-24.64,0 -44.61,20 -44.61,44.6l0,891.4c0,25.2 20.37,45.5 45.51,45.5l90.08,0c9.12,0 17.73,-4.1 23.38,-11.3l471.99,-597.2l0,532.8c0,42.6 34.55,77.1 77.16,77.1" id="path24"/>
    <path fill-rule="nonzero" fill="#36b85f" d="m6147.25335,14235.07158c-17.14,-8.8 -37.86,-4.9 -51.03,9.1c-42.88,45.8 -123.08,84 -213.35,84c-137.41,0 -203.31,-57.4 -203.31,-130.4c0,-85.5 100.95,-109.3 218.73,-123.3c204.71,-25.3 395.41,-78.6 395.41,-312.7c0,-218.8 -193.5,-312.7 -412.23,-312.7c-193.84,0 -344.43,57.6 -420.11,223.6c-4.41,9.7 -0.59,21.2 8.85,26.1l99.16,51.3c19.92,10.4 44.63,4 56.53,-15.1c52.03,-83.2 153.01,-120.4 258.37,-120.4c116.37,0 225.74,40.6 225.74,147.2c0,92.5 -96.75,130.4 -227.14,144.4c-200.51,23.8 -385.59,77.1 -385.59,297.3c0,201.9 199.1,284.6 379.98,286c146.66,0 298.5,-40 376.19,-177.1c5.41,-9.5 1.78,-21.7 -7.98,-26.8l-98.22,-50.5" id="path26"/>
    <path fill-rule="nonzero" fill="#36b85f" d="m7267.74335,13632.17158c19.03,-19.2 17.7,-50.9 -3.36,-67.9c-94.85,-76.5 -210.83,-112.4 -335.51,-112.4c-364.55,0 -518.79,251 -520.2,506.2c-1.39,256.6 165.46,517.4 520.2,517.4c117.03,0 228.65,-39 322.5,-116c21.13,-17.3 21.97,-49.4 2.31,-68.4l-57.73,-55.8c-16.41,-15.8 -41.81,-17.1 -60.02,-3.3c-60.19,45.4 -134.13,66.8 -207.06,66.8c-236.96,0 -339.32,-176.7 -337.92,-340.7c1.41,-162.7 95.36,-332.3 337.92,-332.3c72.7,0 153.51,25.3 215.73,72.5c18.73,14.2 44.89,13 61.42,-3.7l61.72,-62.4" id="path28"/>
    <path fill-rule="evenodd" fill="#121010" d="m963.04435,16456.87158l1808.859,0l0,-275.6l-1808.859,0c-179.707,0 -343.231,-73.6 -461.836,-192.2c-118.605,-118.6 -192.187,-282.2 -192.187,-461.9c0,-179.7 73.582,-343.2 192.187,-461.8c118.605,-118.6 282.129,-192.2 461.836,-192.2l4500.209,0l0,-275.7l-3138.4,0l0,-1118.7l-320.94,0l0,1118.7l-1040.869,0c-255.824,0 -488.309,104.6 -656.723,273c-168.433,168.4 -272.988,400.9 -272.988,656.7c0,255.9 104.555,488.3 272.988,656.7c168.414,168.5 400.899,273 656.723,273" id="path30"/>
    <path fill-rule="evenodd" fill="#fcf108" d="m2693.23335,16296.77158l78.67,0l0,19.6l-78.67,0l0,-19.6zm2760.94,-1547.4l0,-19.7l-19.68,0l0,19.7l19.68,0zm-39.35,0l0,-19.7l-98.51,0l0,19.7l98.51,0zm-118.21,0l0,-19.7l-19.68,0l0,19.7l19.68,0zm-39.37,0l0,-19.7l-98.43,0l0,19.7l98.43,0zm-118.11,0l0,-19.7l-19.68,0l0,19.7l19.68,0zm-39.37,0l0,-19.7l-98.51,0l0,19.7l98.51,0zm-118.19,0l0,-19.7l-19.7,0l0,19.7l19.7,0zm-39.38,0l0,-19.7l-98.42,0l0,19.7l98.42,0zm-118.1,0l0,-19.7l-19.7,0l0,19.7l19.7,0zm-39.37,0l0,-19.7l-98.51,0l0,19.7l98.51,0zm-118.21,0l0,-19.7l-19.68,0l0,19.7l19.68,0zm-39.36,0l0,-19.7l-98.42,0l0,19.7l98.42,0zm-118.12,0l0,-19.7l-19.68,0l0,19.7l19.68,0zm-39.37,0l0,-19.7l-98.51,0l0,19.7l98.51,0zm-118.19,0l0,-19.7l-19.68,0l0,19.7l19.68,0zm-39.38,0l0,-19.7l-98.42,0l0,19.7l98.42,0zm-118.1,0l0,-19.7l-19.7,0l0,19.7l19.7,0zm-39.37,0l0,-19.7l-98.43,0l0,19.7l98.43,0zm-118.19,0l0,-19.7l-19.7,0l0,19.7l19.7,0zm-39.38,0l0,-19.7l-98.42,0l0,19.7l98.42,0zm-118.12,0l0,-19.7l-19.68,0l0,19.7l19.68,0zm-39.36,0l0,-19.7l-98.44,0l0,19.7l98.44,0zm-118.12,0l0,-19.7l-19.76,0l0,19.7l19.76,0zm-39.46,0l0,-19.7l-98.42,0l0,19.7l98.42,0zm-118.1,0l0,-19.7l-19.68,0l0,19.7l19.68,0zm-39.38,0l0,-19.7l-98.42,0l0,19.7l98.42,0zm-118.1,0l0,-19.7l-19.78,0l0,19.7l19.78,0zm-39.46,0l0,-19.7l-98.42,0l0,19.7l98.42,0zm-118.1,0l0,-19.7l-19.7,0l0,19.7l19.7,0zm-39.38,0l0,-19.7l-98.42,0l0,19.7l98.42,0zm-118.12,0l0,-19.7l-19.68,0l0,19.7l19.68,0zm-39.44,0l0,-19.7l-98.42,0l0,19.7l98.42,0zm-118.12,0l0,-19.7l-19.68,0l0,19.7l19.68,0zm-39.38,0l0,-19.7l-98.42,0l0,19.7l98.42,0zm-118.1,0l0,-19.7l-19.7,0l0,19.7l19.7,0zm-39.38,0l0,-19.7l-98.51,0l0,19.7l98.51,0zm-118.18,0l0,-19.7l-19.7,0l0,19.7l19.7,0zm-39.38,0l0,-19.7l-98.42,0l0,19.7l98.42,0zm-118.12,0l0,-19.7l-19.68,0l0,19.7l19.68,0zm-39.36,0l0,-19.7l-98.51,0l0,19.7l98.51,0zm-118.2,0l0,-19.7l-19.68,0l0,19.7l19.68,0zm-39.38,0l0,-19.7l-98.43,0l0,19.7l98.43,0zm-118.1,0l0,-19.7l-19.68,0l0,19.7l19.68,0zm-39.38,0l0,-19.7l-98.51,0l0,19.7l98.51,0zm-118.18,0l0,-19.7l-19.7,0l0,19.7l19.7,0zm-39.38,0l0,-19.7l-98.43,0l0,19.7l98.43,0zm-118.1,0l0,-19.7l-19.7,0l0,19.7l19.7,0zm-39.38,0l0,-19.7l-98.51,0l0,19.7l98.51,0zm-118.21,0l0,-19.7l-19.67,0l0,19.7l19.67,0zm-39.35,0l0,-19.7l-98.43,0l0,19.7l98.43,0zm-118.12,0l0,-19.7l-19.68,0l0,19.7l19.68,0zm-39.38,0l0,-19.7l-98.51,0l0,19.7l98.51,0zm-118.19,0l0,-19.7l-19.67,0l0,19.7l19.67,0zm-39.37,0l0,-19.7l-98.43,0l0,19.7l98.43,0zm-118.1,0l0,-19.7l-19.7,0l0,19.7l19.7,0zm-39.38,0l0,-19.7l-98.43,0l0,19.7l98.43,0zm-118.19,0l0,-19.7l-19.693,0l0,19.7l19.693,0zm-39.369,0l0,-19.7l-98.43,0l0,19.7l98.43,0zm-118.125,0l0,-19.7l-19.68,0l0,19.7l19.68,0zm-39.356,0l0,-19.7l-15.117,0l-1.234,0.3l-10.77,3l-10.707,2.9l-10.539,3l-10.539,3.2l-10.371,3.2l-10.371,3.3l-10.203,3.4l-8.176,2.8l6.375,18.6l8.012,-2.8l10.035,-3.3l10.207,-3.2l10.223,-3.2l20.742,-6l10.457,-3l9.386,-2.5l12.59,0zm-110.031,30.4l-3.262,1.3l-9.722,3.5l-5.231,2.1l-7.191,-18.4l5.476,-2.1l9.871,-3.7l3.286,-1.1l6.773,18.4zm-36.426,14l-5.226,2.1l-9.41,4l-9.305,3.9l-9.223,4.1l-18.133,8.3l-8.988,4.2l-8.824,4.4l-8.824,4.4l-8.66,4.4l-1.879,1l-9.223,-17.4l2.027,-1.1l8.825,-4.5l8.992,-4.5l9.074,-4.4l9.055,-4.3l9.242,-4.3l9.305,-4.2l9.39,-4.1l9.473,-4.1l9.554,-4l5.313,-2.1l7.445,18.2zm-105.621,50l-6.605,3.6l-8.344,4.7l-2.051,1.2l-9.953,-17l2.195,-1.3l8.575,-4.8l6.543,-3.6l9.64,17.2zm-33.812,19.3l-5.731,3.6l-8.008,4.9l-7.906,5l-7.84,5.1l-7.777,5.1l-7.676,5.3l-7.59,5.2l-7.507,5.3l-7.446,5.4l-7.336,5.5l-5.816,4.4l-11.918,-15.7l5.961,-4.5l7.508,-5.5l7.609,-5.6l7.676,-5.4l7.758,-5.4l7.839,-5.3l7.926,-5.2l8.008,-5.2l8.07,-5.2l8.176,-5.1l5.731,-3.4l10.289,16.7zm-95.981,66.7l-0.336,0.3l-7.023,5.6l-6.86,5.7l-0.816,0.7l-12.734,-15l0.898,-0.8l7.11,-5.8l7.175,-5.8l0.332,-0.3l12.254,15.4zm-29.816,24.9l-4.664,4.1l-13.071,11.9l-6.355,6l-6.379,6l-6.211,6.2l-6.125,6.1l-12.086,12.4l-5.879,6.3l-5.789,6.4l-2.699,2.9l-14.723,-13.1l2.868,-3.1l5.957,-6.5l5.984,-6.5l6.187,-6.3l6.211,-6.3l6.293,-6.4l6.379,-6.2l6.442,-6.2l6.543,-6.1l6.691,-6.2l6.691,-6l4.665,-4.1l13.07,14.7zm-82.098,82.9l-1.379,1.7l-5.48,6.5l-5.395,6.5l-0.144,0.2l-15.453,-12.3l0.336,-0.3l5.558,-6.8l5.543,-6.6l1.402,-1.6l15.012,12.7zm-24.508,30.2l-3.429,4.4l-5.059,6.7l-4.894,6.7l-4.915,6.8l-4.808,6.8l-4.746,6.8l-4.559,6.9l-4.578,6.9l-4.496,6.9l-4.328,7.1l-4.328,6.9l-4.164,7.1l-0.25,0.3l-17.063,-9.8l0.313,-0.5l4.328,-7.2l4.414,-7.2l4.496,-7.2l4.578,-7.1l4.664,-7.1l4.727,-7l4.828,-7.1l4.894,-7l5.059,-6.9l5.062,-6.9l5.145,-6.8l3.43,-4.5l15.679,12zm-64.195,97.3l-2.277,4l-3.848,7.1l-3.098,6l-17.48,-9.1l3.18,-6.1l4.015,-7.3l2.278,-4.1l17.23,9.5zm-17.961,34.4l-2.781,5.7l-3.43,7.3l-3.43,7.4l-3.261,7.3l-3.199,7.4l-3.094,7.4l-3.031,7.4l-2.93,7.5l-2.863,7.4l-2.782,7.5l-2.699,7.5l-2.613,7.5l-0.817,2.5l-18.695,-6.1l0.902,-2.7l2.676,-7.7l2.696,-7.7l2.867,-7.7l2.949,-7.6l3.012,-7.7l3.113,-7.6l3.18,-7.6l3.343,-7.6l3.348,-7.5l3.43,-7.6l3.511,-7.5l2.782,-5.7l17.816,8.5zm-42.887,108.3l-0.566,1.7l-4.41,15.3l-0.504,1.7l-19.027,-5.2l0.562,-1.9l2.219,-7.8l2.363,-7.8l0.5,-1.7l18.863,5.7zm-10.457,37.4l-0.562,2.5l-1.883,7.7l-1.801,7.7l-1.629,7.7l-1.632,7.7l-2.95,15.5l-1.316,7.7l-1.297,7.7l-1.148,7.8l-1.129,7.8l-0.985,7.8l-0.898,7.8l-0.082,0.1l-19.531,-2l0,-0.3l1.964,-16l1.153,-8l1.211,-8l1.316,-8l1.383,-7.9l1.484,-7.9l1.547,-8l1.629,-7.9l1.715,-7.9l1.801,-7.9l1.965,-7.9l0.562,-2.4l19.113,4.6zm-19.195,114.9l-0.336,3.8l-0.648,7.9l-0.481,7.7l-19.613,-1.1l0.5,-8l0.566,-8l0.336,-3.9l19.676,1.6zm-2.363,38.8l-0.082,4.2l-0.168,7.7l-0.086,7.9l0,7.8l0.086,7.8l0.082,7.8l0.25,7.8l0.398,7.9l0.418,7.7l0.481,7.9l0.566,7.7l0.668,7.8l0.648,7l-19.531,2.1l-0.73,-7.3l-1.297,-16l-0.5,-8l-0.399,-8l-0.335,-8l-0.25,-8l-0.231,-8.1l-0.086,-8l0,-8l0.168,-8.1l0.149,-8l0.082,-4.2l19.699,0.6zm5.457,116.3l0.668,4.8l1.047,7.8l1.066,6.7l-19.508,3l-2.133,-14.9l-0.648,-4.8l19.508,-2.6zm5.98,38.4l0.961,5.1l1.485,7.7l3.261,15.4l1.801,7.7l1.797,7.5l1.969,7.7l1.941,7.6l4.266,15.2l2.281,7.5l2.363,7.6l1.629,5.1l-18.691,6.2l-1.715,-5.4l-2.387,-7.7l-2.359,-7.8l-4.414,-15.5l-2.028,-7.9l-1.964,-7.8l-1.883,-7.8l-1.801,-7.9l-1.715,-7.9l-1.629,-7.9l-1.547,-7.9l-0.984,-5.1l19.363,-3.7zm29.965,112.5l2.363,6.5l2.782,7.4l1.632,4.4l-18.363,7.1l-1.734,-4.5l-2.844,-7.7l-2.301,-6.5l18.465,-6.7zm13.969,36.2l3.031,7.2l3.18,7.4l3.262,7.2l3.343,7.3l3.453,7.3l3.493,7.2l3.593,7.2l3.684,7.2l3.762,7.1l7.843,14.2l3.993,7l0.418,0.7l-16.918,10.1l-0.563,-0.9l-8.176,-14.6l-3.91,-7.2l-3.933,-7.4l-3.743,-7.2l-3.679,-7.5l-3.598,-7.4l-3.512,-7.5l-3.429,-7.4l-3.43,-7.5l-3.199,-7.5l-3.094,-7.2l18.129,-7.8zm53.094,103.8l2.132,3.4l4.329,6.9l3.91,6.1l-16.5,10.8l-3.992,-6.3l-4.497,-7l-2.132,-3.6l16.75,-10.3zm21.16,32.5l3.511,5l4.813,6.8l4.828,6.7l9.953,13.3l10.309,13l5.312,6.6l5.375,6.4l5.395,6.4l5.562,6.4l5.145,5.8l-14.699,13.1l-5.231,-6l-5.73,-6.5l-5.539,-6.5l-5.481,-6.6l-5.476,-6.7l-5.313,-6.7l-5.226,-6.7l-5.145,-6.8l-5.062,-6.9l-4.973,-6.8l-4.914,-6.9l-3.516,-5.1l16.102,-11.3zm73.269,90.6l4.727,4.9l5.98,6.2l2.844,2.9l-13.969,13.9l-3.007,-3l-6.047,-6.3l-4.746,-5l14.218,-13.6zm27.438,27.7l1.566,1.5l6.274,6l6.379,5.9l6.46,5.8l6.524,5.8l6.629,5.8l6.691,5.7l6.778,5.6l6.855,5.6l6.945,5.5l7.11,5.5l5.726,4.4l-11.855,15.7l-5.875,-4.5l-7.278,-5.7l-7.109,-5.6l-7.027,-5.7l-6.942,-5.8l-6.859,-5.8l-6.773,-5.9l-6.692,-5.9l-6.629,-6l-6.523,-6.1l-6.379,-6.1l-1.633,-1.5l13.637,-14.2zm89.621,74.6l0.148,0.2l14.868,10.4l0.816,0.6l-10.938,16.3l-1.066,-0.7l-7.59,-5.3l-7.594,-5.4l-0.164,-0.1l11.52,-16zm32.016,22l5.875,3.8l7.843,5l7.84,4.9l8.008,4.8l8.012,4.8l8.152,4.7l8.176,4.7l8.324,4.5l8.344,4.5l8.488,4.4l5.227,2.7l-8.907,17.6l-5.394,-2.8l-8.656,-4.5l-16.981,-9.3l-8.406,-4.7l-8.344,-4.8l-16.332,-9.9l-8.09,-4.9l-7.926,-5.1l-5.878,-3.8l10.625,-16.6zm101.773,57.5l3.176,1.6l8.824,4.2l5.648,2.5l-8.175,18l-5.793,-2.7l-8.993,-4.2l-3.261,-1.6l8.574,-17.8zm35.359,16.3l3.598,1.6l9.156,3.9l9.223,3.8l9.305,3.7l9.41,3.7l9.472,3.7l9.555,3.5l9.727,3.4l9.722,3.4l9.785,3.3l2.133,0.7l-5.961,18.7l-2.382,-0.7l-9.954,-3.3l-9.972,-3.5l-9.789,-3.6l-9.723,-3.6l-9.723,-3.6l-9.554,-3.8l-9.477,-3.7l-9.406,-4l-9.309,-4l-3.593,-1.5l7.757,-18.1zm109.696,40.6l9.242,2.9l9.558,2.8l-5.48,18.8l-9.723,-2.8l-9.222,-2.8l5.625,-18.9zm37.578,10.9l2.383,0.6l10.457,2.8l10.453,2.7l21.226,5.1l10.789,2.4l10.852,2.3l9.976,2.1l17.563,0l0,19.6l-19.531,0l-0.981,-0.1l-11.105,-2.3l-11.02,-2.4l-10.875,-2.4l-10.851,-2.5l-10.789,-2.7l-10.707,-2.7l-10.539,-2.8l-2.446,-0.7l5.145,-19zm113.379,18l19.695,0l0,19.6l-19.695,0l0,-19.6zm39.375,0l98.512,0l0,19.6l-98.512,0l0,-19.6zm118.182,0l19.7,0l0,19.6l-19.7,0l0,-19.6zm39.38,0l98.42,0l0,19.6l-98.42,0l0,-19.6zm118.12,0l19.68,0l0,19.6l-19.68,0l0,-19.6zm39.36,0l98.51,0l0,19.6l-98.51,0l0,-19.6zm118.2,0l19.68,0l0,19.6l-19.68,0l0,-19.6zm39.38,0l98.43,0l0,19.6l-98.43,0l0,-19.6zm118.1,0l19.68,0l0,19.6l-19.68,0l0,-19.6zm39.38,0l98.51,0l0,19.6l-98.51,0l0,-19.6zm118.18,0l19.7,0l0,19.6l-19.7,0l0,-19.6zm39.38,0l98.43,0l0,19.6l-98.43,0l0,-19.6zm118.1,0l19.7,0l0,19.6l-19.7,0l0,-19.6zm39.38,0l98.51,0l0,19.6l-98.51,0l0,-19.6zm118.21,0l19.67,0l0,19.6l-19.67,0l0,-19.6zm39.35,0l98.43,0l0,19.6l-98.43,0l0,-19.6zm118.12,0l19.68,0l0,19.6l-19.68,0l0,-19.6zm39.38,0l98.51,0l0,19.6l-98.51,0l0,-19.6zm118.19,0l19.67,0l0,19.6l-19.67,0l0,-19.6zm39.37,0l98.43,0l0,19.6l-98.43,0l0,-19.6zm118.1,0l19.7,0l0,19.6l-19.7,0l0,-19.6zm39.38,0l98.43,0l0,19.6l-98.43,0l0,-19.6zm118.19,0l19.69,0l0,19.6l-19.69,0l0,-19.6" id="path32"/>
    <path fill-rule="evenodd" fill="#fcf108" d="m2158.35335,14530.47158l19.68,0l0,-19.7l-19.68,0l0,19.7zm0,-39.4l19.68,0l0,-98.5l-19.68,0l0,98.5zm0,-118.2l19.68,0l0,-19.7l-19.68,0l0,19.7zm0,-39.4l19.68,0l0,-98.4l-19.68,0l0,98.4zm0,-118.1l19.68,0l0,-19.6l-19.68,0l0,19.6zm0,-39.3l19.68,0l0,-98.5l-19.68,0l0,98.5zm0,-118.2l19.68,0l0,-19.7l-19.68,0l0,19.7zm0,-39.4l19.68,0l0,-98.4l-19.68,0l0,98.4zm0,-118.1l16.24,0l0,-19.7l-16.24,0l0,19.7zm0,-39.4l19.68,0l0,-98.5l-19.68,0l0,98.5zm0,-118.2l19.68,0l0,-19.7l-19.68,0l0,19.7zm0,-39.3l19.68,0l0,-98.5l-19.68,0l0,98.5zm0,-118.2l19.68,0l0,-19.6l-19.68,0l0,19.6" id="path34"/>
    <path fill-rule="evenodd" fill="#121010" d="m7317.96335,14873.07158l-2203.66,0l0,-275.7l2203.66,0l0,275.7" id="path36"/>
    <path fill-rule="nonzero" fill="#fcf108" d="m5632.71335,14729.57158l98.42,0l0,19.7l-98.42,0l0,-19.7" id="path38"/>
    <path fill-rule="nonzero" fill="#fcf108" d="m5790.19335,14729.57158l98.42,0l0,19.7l-98.42,0l0,-19.7" id="path40"/>
    <path fill-rule="nonzero" fill="#fcf108" d="m5947.75335,14729.57158l98.45,0l0,19.7l-98.45,0l0,-19.7" id="path42"/>
    <path fill-rule="nonzero" fill="#fcf108" d="m6105.24335,14729.57158l98.43,0l0,19.7l-98.43,0l0,-19.7" id="path44"/>
    <path fill-rule="nonzero" fill="#fcf108" d="m5160.11335,14729.57158l98.42,0l0,19.7l-98.42,0l0,-19.7" id="path46"/>
    <path fill-rule="nonzero" fill="#fcf108" d="m5475.14335,14729.57158l98.43,0l0,19.7l-98.43,0l0,-19.7" id="path48"/>
    <path fill-rule="nonzero" fill="#fcf108" d="m5317.67335,14729.57158l98.42,0l0,19.7l-98.42,0l0,-19.7" id="path50"/>
    <path fill-rule="nonzero" fill="#fcf108" d="m6892.83335,14729.57158l98.5,0l0,19.7l-98.5,0l0,-19.7" id="path52"/>
    <path fill-rule="nonzero" fill="#fcf108" d="m7050.39335,14729.57158l98.43,0l0,19.7l-98.43,0l0,-19.7" id="path54"/>
    <path fill-rule="nonzero" fill="#fcf108" d="m6262.81335,14729.57158l98.42,0l0,19.7l-98.42,0l0,-19.7" id="path56"/>
    <path fill-rule="nonzero" fill="#fcf108" d="m7207.87335,14729.57158l98.51,0l0,19.7l-98.51,0l0,-19.7" id="path58"/>
    <path fill-rule="nonzero" fill="#fcf108" d="m6420.29335,14729.57158l98.42,0l0,19.7l-98.42,0l0,-19.7" id="path60"/>
    <path fill-rule="nonzero" fill="#fcf108" d="m6577.77335,14729.57158l98.51,0l0,19.7l-98.51,0l0,-19.7" id="path62"/>
    <path fill-rule="nonzero" fill="#fcf108" d="m6735.35335,14729.57158l98.42,0l0,19.7l-98.42,0l0,-19.7" id="path64"/>
    <path fill-rule="nonzero" fill="#f9ac1b" d="m1078.61335,15836.47158l-218.94,-486.9l136.445,0l0,-344.1l165.665,0l0,225.6l0,118.5l2.24,0l133.53,0l-218.94,486.9" id="path66"/>
    <path fill-rule="nonzero" fill="#36b85f" d="m1081.86335,15921.57158c-214.479,0 -388.971,-174.5 -388.971,-389c0,-214.4 174.492,-388.9 388.971,-388.9c214.47,0 388.97,174.5 388.97,388.9c0,214.5 -174.5,389 -388.97,389zm0,-977.9c-324.764,0 -588.971,264.2 -588.971,588.9c0,324.8 264.207,589 588.971,589c324.76,0 588.97,-264.2 588.97,-589c0,-324.7 -264.21,-588.9 -588.97,-588.9" id="path68"/>
    <path fill-rule="nonzero" fill="#f9ac1b" d="m2315.89335,15836.47158l-218.94,-486.9l136.45,0l0,-344.1l165.66,0l0,225.6l0,118.5l2.24,0l133.54,0l-218.95,486.9" id="path70"/>
    <path fill-rule="nonzero" fill="#36b85f" d="m2319.14335,15921.57158c-214.48,0 -388.97,-174.5 -388.97,-389c0,-214.4 174.49,-388.9 388.97,-388.9c214.48,0 388.97,174.5 388.97,388.9c0,214.5 -174.49,389 -388.97,389zm0,-977.9c-324.76,0 -588.97,264.2 -588.97,588.9c0,324.8 264.21,589 588.97,589c324.76,0 588.97,-264.2 588.97,-589c0,-324.7 -264.21,-588.9 -588.97,-588.9" id="path72"/>
   </g>
  </g>
 </g>
</svg>